<?xml version="1.0" encoding="iso-8859-1"?>

<!-- Generator: Adobe Illustrator 19.0.0, SVG Export Plug-In . SVG Version: 6.00 Build 0)  -->
<svg xmlns="http://www.w3.org/2000/svg" xmlns:xlink="http://www.w3.org/1999/xlink" version="1.1" id="Capa_1" x="0px" y="0px" viewBox="0 0 480.015 480.015" style="enable-background:new 0 0 480.015 480.015;" xml:space="preserve">
<g>
	
		<linearGradient xmlns="http://www.w3.org/2000/svg" gradientTransform="matrix(8 0 0 -8 454.9517 4941.1309)" y2="500" x2="29.5519" y1="587.64" x1="-57.6441" gradientUnits="userSpaceOnUse" id="SVGID_1_">
		<stop offset="0" style="stop-color:#3a97e9"/>
		<stop offset="0.356" style="stop-color:#3ce4ed"/>
		<stop offset="0.711" style="stop-color:#3ff3c0"/>
		<stop offset="1" style="stop-color:#a0f2f0"/>
	</linearGradient>
	<path style="fill:url(#SVGID_1_);" d="M156.007,0.015c-35.588,0.057-66.384,24.772-74.144,59.504   c-33.18,10.641-53.925,43.575-49.192,78.096c-34.319,26.437-40.709,75.69-14.272,110.009c7.288,9.461,16.64,17.133,27.344,22.431   c-8.711,11.73-13.408,25.957-13.392,40.568c0.087,30.911,20.803,57.959,50.624,66.096c3.891,6.317,8.788,11.957,14.496,16.696   c-10.07,36.391,11.267,74.055,47.658,84.125c3.647,1.009,7.371,1.714,11.134,2.107c2.358,0.239,4.726,0.359,7.096,0.36   c37.871,0.027,68.599-30.641,68.648-68.512V72.015h-0.2C229.682,31.688,196.39,0.065,156.007,0.015z M48.351,310.623   c-0.022-10.466,3.106-20.696,8.976-29.36c4.546,11.923,12.113,22.46,21.96,30.576c-6.581,13.712-8.292,29.258-4.848,44.072   C58.337,346.499,48.414,329.273,48.351,310.623L48.351,310.623z M216.007,411.495c0.018,17.644-8.854,34.111-23.6,43.8   c-10.148,6.81-22.383,9.798-34.528,8.432c-28.812-3.067-49.683-28.91-46.616-57.723c0.151-1.415,0.359-2.823,0.624-4.221   c16.84,8.652,36.508,9.958,54.344,3.608l-5.496-15.032c-6.69,2.385-13.806,3.339-20.888,2.8   c2.368-15.276,11.41-28.706,24.672-36.648l-8.264-13.696c-17.015,10.2-28.709,27.341-32,46.904   c-4.37-1.668-8.491-3.926-12.248-6.712c-1.122-0.81-2.439-1.307-3.816-1.44c-12.361-9.881-19.534-24.864-19.48-40.688   c-0.051-9.541,2.57-18.905,7.568-27.032l0.08-0.08c9.418-15.807,26.488-25.46,44.888-25.384v-16c-0.488,0-0.952,0.072-1.44,0.08   c2.291-15.408,11.368-28.978,24.736-36.976l-8.264-13.704c-18.866,11.303-31.079,31.055-32.76,52.984   c-14.136,3.72-26.686,11.922-35.768,23.376c-23.739-21.269-25.741-57.755-4.472-81.494c3.17-3.539,6.766-6.672,10.704-9.33   l-8.96-13.248c-20.309,13.7-32.479,36.598-32.472,61.096v0.4c-30.882-15.533-43.325-53.16-27.792-84.042   c12.418-24.689,39.558-38.312,66.776-33.518l2.736-15.768c-15.675-2.68-31.794-0.587-46.264,6.008v-0.232   c-0.024-21.642,12.479-41.344,32.072-50.536c0.822,41.362,34.558,74.479,75.928,74.536v-16c-33.137,0-60-26.863-60-60   s26.863-60,60-60s60,26.863,60,60L216.007,411.495z"/>
	
		<linearGradient id="SVGID_2_" gradientUnits="userSpaceOnUse" x1="-57.6441" y1="587.6404" x2="29.5519" y2="587.6404" gradientTransform="matrix(8 0 0 -8 454.9517 4941.1309)">
		<stop offset="0" style="stop-color:#E93E3A"/>
		<stop offset="0.356" style="stop-color:#ED683C"/>
		<stop offset="0.711" style="stop-color:#F3903F"/>
		<stop offset="1" style="stop-color:#FDC70C"/>
	</linearGradient>
	
</g>
<g>
</g>
<g>
</g>
<g>
</g>
<g>
</g>
<g>
</g>
<g>
</g>
<g>
</g>
<g>
</g>
<g>
</g>
<g>
</g>
<g>
</g>
<g>
</g>
<g>
</g>
<g>
</g>
<g>
</g>
</svg>
