<?xml version="1.0" encoding="iso-8859-1"?>
<!-- Generator: Adobe Illustrator 19.0.0, SVG Export Plug-In . SVG Version: 6.00 Build 0)  -->
<svg xmlns="http://www.w3.org/2000/svg" xmlns:xlink="http://www.w3.org/1999/xlink" version="1.1" id="Capa_1" x="0px" y="0px" viewBox="0 0 480.015 480.015" style="enable-background:new 0 0 480.015 480.015;" xml:space="preserve">
<g>
	
		<linearGradient xmlns="http://www.w3.org/2000/svg" gradientTransform="matrix(8 0 0 -8 454.9517 4941.1309)" y2="500" x2="29.5519" y1="587.64" x1="-57.6441" gradientUnits="userSpaceOnUse" id="SVGID_1_">
		<stop offset="0" style="stop-color:#3a97e9"/>
		<stop offset="0.356" style="stop-color:#3ce4ed"/>
		<stop offset="0.711" style="stop-color:#3ff3c0"/>
		<stop offset="1" style="stop-color:#a0f2f0"/>
	</linearGradient>
	
	
		<linearGradient id="SVGID_2_" gradientUnits="userSpaceOnUse" x1="-57.6441" y1="587.6404" x2="29.5519" y2="587.6404" gradientTransform="matrix(8 0 0 -8 454.9517 4941.1309)">
		<stop offset="0" style="stop-color:#E93E3A"/>
		<stop offset="0.356" style="stop-color:#ED683C"/>
		<stop offset="0.711" style="stop-color:#F3903F"/>
		<stop offset="1" style="stop-color:#FDC70C"/>
	</linearGradient>
	<path style="fill:url(#SVGID_2_);" d="M477.919,199.663c-0.059-24.296-11.346-47.2-30.576-62.048   c4.728-34.519-16.016-67.448-49.192-78.088c-9.063-40.938-49.597-66.778-90.535-57.716c-33.336,7.38-57.645,36.106-59.409,70.204   h-0.2v339.48c0.049,37.872,30.776,68.542,68.648,68.52c2.37,0,4.738-0.121,7.096-0.36c37.554-3.921,64.82-37.544,60.899-75.098   c-0.393-3.763-1.098-7.487-2.107-11.134c5.708-4.739,10.605-10.379,14.496-16.696c29.821-8.137,50.537-35.185,50.624-66.096   c0.016-14.611-4.681-28.838-13.392-40.568C461.029,256.812,477.949,229.522,477.919,199.663L477.919,199.663z M405.607,355.911   c3.444-14.814,1.733-30.36-4.848-44.072c9.847-8.116,17.414-18.653,21.96-30.576c16.198,23.987,9.883,56.564-14.104,72.762   C407.634,354.687,406.631,355.316,405.607,355.911L405.607,355.911z M427.487,255.551c0-0.136,0-0.264,0-0.4   c0.007-24.498-12.163-47.396-32.472-61.096l-8.96,13.248c26.422,17.827,33.389,53.698,15.561,80.12   c-2.657,3.938-5.791,7.534-9.329,10.704c-9.082-11.454-21.632-19.656-35.768-23.376c-1.681-21.929-13.894-41.681-32.76-52.984   l-8.264,13.704c13.368,7.998,22.445,21.568,24.736,36.976c-0.488,0-0.952-0.08-1.44-0.08v16c18.4-0.076,35.47,9.577,44.888,25.384   l0.08,0.08c4.998,8.127,7.619,17.491,7.568,27.032c0.054,15.824-7.12,30.807-19.48,40.688c-1.377,0.133-2.694,0.63-3.816,1.44   c-3.759,2.784-7.879,5.042-12.248,6.712c-3.287-19.565-14.982-36.707-32-46.904l-8.264,13.696   c13.262,7.942,22.304,21.372,24.672,36.648c-7.082,0.54-14.198-0.414-20.888-2.8l-5.496,15.032   c17.837,6.346,37.503,5.04,54.344-3.608c5.398,28.468-13.303,55.922-41.771,61.32c-1.398,0.265-2.806,0.473-4.221,0.624   c-12.168,1.362-24.423-1.64-34.584-8.472c-14.723-9.681-23.582-26.124-23.568-43.744V76.015c0-33.137,26.863-60,60-60   s60,26.863,60,60s-26.863,60-60,60v16c41.37-0.057,75.106-33.174,75.928-74.536c19.593,9.192,32.096,28.894,32.072,50.536v0.224   c-14.467-6.596-30.583-8.692-46.256-6.016l2.736,15.768c34.06-5.982,66.522,16.779,72.504,50.84   c0.628,3.576,0.944,7.201,0.944,10.832c0.014,23.655-13.333,45.289-34.48,55.888L427.487,255.551z"/>
</g>
<g>
</g>
<g>
</g>
<g>
</g>
<g>
</g>
<g>
</g>
<g>
</g>
<g>
</g>
<g>
</g>
<g>
</g>
<g>
</g>
<g>
</g>
<g>
</g>
<g>
</g>
<g>
</g>
<g>
</g>
</svg>